<?xml version="1.0" encoding="utf-8"?>
<!-- Generator: Adobe Illustrator 16.0.0, SVG Export Plug-In . SVG Version: 6.00 Build 0)  -->
<!DOCTYPE svg PUBLIC "-//W3C//DTD SVG 1.1//EN" "http://www.w3.org/Graphics/SVG/1.1/DTD/svg11.dtd">
<svg version="1.1" id="Layer_1_copy_2" xmlns="http://www.w3.org/2000/svg" xmlns:xlink="http://www.w3.org/1999/xlink" x="0px"
	 y="0px" width="203.152px" height="59.121px" viewBox="0 0 203.152 59.121" enable-background="new 0 0 203.152 59.121"
	 xml:space="preserve">
<g>
	<path fill="#FF9505" d="M1.131,57.085C0.076,56.557,0,56.255,0,54.219c0-3.77,0.302-6.786,0.377-7.993
		c0.076-0.829,0.227-1.206,0.604-1.206c0.453,0,0.528,0.226,0.528,0.829c0,0.679,0,1.734,0.226,2.79
		c1.131,5.58,6.108,7.692,11.161,7.692c7.239,0,10.784-5.203,10.784-10.029c0-5.204-2.187-8.22-8.672-13.574l-3.393-2.79
		C3.62,23.377,1.81,18.702,1.81,13.574C1.81,5.505,7.843,0,17.419,0c2.941,0,5.128,0.302,7.013,0.754
		c1.433,0.302,2.036,0.377,2.639,0.377c0.604,0,0.754,0.151,0.754,0.528s-0.302,2.866-0.302,7.993c0,1.207-0.151,1.734-0.528,1.734
		c-0.453,0-0.528-0.377-0.604-0.98c-0.075-0.905-0.528-2.941-0.98-3.771c-0.453-0.83-2.489-3.997-9.426-3.997
		c-5.203,0-9.275,3.243-9.275,8.747c0,4.298,1.961,7.013,9.2,12.669l2.111,1.659c8.898,7.013,11.01,11.688,11.01,17.721
		c0,3.092-1.207,8.823-6.41,12.519c-3.243,2.262-7.315,3.167-11.387,3.167C7.692,59.121,4.223,58.593,1.131,57.085z"/>
	<path fill="#FF9505" d="M47.646,39.666c0,6.184,0,11.236,0.302,13.875c0.226,1.885,0.452,3.092,2.413,3.395
		c0.98,0.15,2.413,0.301,3.016,0.301c0.377,0,0.528,0.301,0.528,0.527c0,0.303-0.302,0.529-1.056,0.529
		c-3.695,0-7.993-0.227-8.295-0.227c-0.377,0-4.524,0.227-6.561,0.227c-0.679,0-1.056-0.152-1.056-0.529
		c0-0.227,0.151-0.527,0.528-0.527c0.603,0,1.433-0.15,2.036-0.301c1.282-0.303,1.508-1.51,1.734-3.395
		c0.301-2.639,0.377-7.691,0.377-13.875V28.355c0-9.954,0-11.764-0.151-13.8c-0.151-2.187-0.679-3.167-2.111-3.469
		c-0.754-0.15-1.583-0.226-2.036-0.226c-0.302,0-0.528-0.302-0.528-0.528c0-0.377,0.302-0.528,1.056-0.528
		c2.187,0,6.334,0.151,6.711,0.151c0.302,0,4.6-0.151,6.636-0.151c0.754,0,1.056,0.151,1.056,0.528c0,0.226-0.302,0.528-0.528,0.528
		c-0.452,0-0.905,0-1.659,0.151c-1.81,0.377-2.187,1.282-2.338,3.544c-0.075,2.036-0.075,3.846-0.075,13.8V39.666z"/>
	<path fill="#FF9505" d="M64.986,28.355c0-9.954,0-11.764-0.151-13.8c-0.151-2.187-0.528-3.243-2.715-3.544
		c-0.528-0.075-1.659-0.151-2.262-0.151c-0.226,0-0.528-0.302-0.528-0.528c0-0.377,0.302-0.528,1.056-0.528
		c3.017,0,7.465,0.151,7.843,0.151c0.679,0,6.259-0.151,8.295-0.151c4.223,0,8.898,0.377,12.367,2.79
		c1.659,1.207,4.6,4.298,4.6,8.748c0,4.75-1.961,9.352-8.144,14.629c5.429,6.787,10.03,12.594,13.876,16.59
		c3.543,3.621,5.73,4.223,7.389,4.449c1.283,0.227,1.961,0.227,2.338,0.227s0.604,0.301,0.604,0.527
		c0,0.377-0.377,0.529-1.584,0.529h-4.146c-3.771,0-5.43-0.377-7.09-1.283c-2.865-1.508-5.278-4.6-9.048-9.426
		c-2.79-3.469-5.731-7.617-7.164-9.352c-0.302-0.301-0.453-0.377-0.905-0.377l-8.446-0.15c-0.302,0-0.453,0.15-0.453,0.527v1.51
		c0,6.184,0,11.16,0.302,13.799c0.226,1.885,0.603,3.092,2.639,3.395c0.905,0.15,2.338,0.301,2.941,0.301
		c0.453,0,0.528,0.301,0.528,0.527c0,0.303-0.301,0.529-1.056,0.529c-3.62,0-7.842-0.227-8.144-0.227
		c-0.076,0-4.524,0.227-6.561,0.227c-0.679,0-1.056-0.152-1.056-0.529c0-0.227,0.151-0.527,0.528-0.527
		c0.603,0,1.433-0.15,2.036-0.301c1.282-0.303,1.433-1.51,1.734-3.395c0.377-2.639,0.377-7.691,0.377-13.875V28.355z M70.717,33.785
		c0,0.377,0.151,0.602,0.453,0.828c0.98,0.527,4.374,0.98,7.314,0.98c1.583,0,3.394-0.074,4.977-1.131
		c2.262-1.508,3.997-4.902,3.997-9.803c0-7.993-4.374-12.593-11.462-12.593c-1.961,0-4.072,0.226-4.751,0.377
		c-0.302,0.151-0.528,0.377-0.528,0.754V33.785z"/>
	<path fill="#FF9505" d="M127.232,49.922c3.846-8.598,12.518-30.465,13.951-35.065c0.301-0.98,0.603-1.885,0.603-2.413
		s-0.226-1.131-0.904-1.357c-0.754-0.226-1.509-0.226-2.263-0.226c-0.377,0-0.754-0.226-0.754-0.528
		c0-0.377,0.452-0.528,1.508-0.528c2.64,0,5.656,0.151,6.485,0.151c0.377,0,3.243-0.151,5.203-0.151
		c0.679,0,1.056,0.151,1.056,0.453c0,0.301-0.226,0.603-0.754,0.603c-0.452,0-1.961,0-3.167,0.754
		c-0.905,0.604-1.961,1.508-3.695,5.882c-0.754,1.81-3.996,9.501-7.39,17.344c-4.072,9.352-7.014,16.289-8.521,19.455
		c-1.81,3.846-2.187,4.826-2.865,4.826c-0.754,0-1.207-0.828-2.488-3.92l-16.289-39.289c-1.508-3.62-2.413-4.298-4.6-4.826
		c-1.056-0.226-2.187-0.226-2.563-0.226c-0.378,0-0.528-0.377-0.528-0.603c0-0.377,0.679-0.453,1.734-0.453
		c3.167,0,6.938,0.151,7.768,0.151c0.679,0,3.619-0.151,6.183-0.151c1.207,0,1.811,0.151,1.811,0.453
		c0,0.301-0.227,0.603-0.679,0.603c-0.754,0-1.81,0.076-2.413,0.302c-0.679,0.302-0.754,0.679-0.754,1.131
		c0,0.83,0.829,2.791,1.81,5.354L127.232,49.922z"/>
	<path fill="#FF9505" d="M176.156,41.627c0-3.469-0.453-4.75-1.433-6.561c-0.528-0.98-9.502-15.233-11.765-18.626
		c-1.583-2.413-3.167-3.846-4.373-4.675c-0.98-0.603-2.263-0.905-2.79-0.905c-0.377,0-0.679-0.302-0.679-0.603
		c0-0.302,0.226-0.453,0.829-0.453c1.282,0,6.259,0.151,6.561,0.151c0.452,0,3.167-0.151,5.731-0.151
		c0.754,0,0.904,0.151,0.904,0.453c0,0.226-0.452,0.452-1.056,0.679c-0.527,0.226-0.829,0.528-0.829,1.056
		c0,0.905,0.452,1.659,0.905,2.488l12.065,19.983c1.357-2.715,9.652-16.439,10.858-18.551c0.829-1.433,1.131-2.488,1.131-3.318
		c0-0.905-0.302-1.433-1.056-1.659c-0.603-0.151-0.98-0.453-0.98-0.754c0-0.226,0.378-0.377,1.057-0.377
		c1.734,0,4.071,0.151,4.6,0.151c0.452,0,5.203-0.151,6.485-0.151c0.452,0,0.829,0.151,0.829,0.377c0,0.302-0.302,0.679-0.829,0.679
		c-0.755,0-2.036,0.226-3.092,0.83c-1.282,0.754-1.886,1.433-3.318,3.167c-2.187,2.564-11.537,17.646-12.895,20.36
		c-1.132,2.262-0.83,4.299-0.83,6.41v5.504c0,1.057,0,3.771,0.227,6.41c0.15,1.885,0.604,3.092,2.563,3.395
		c0.905,0.15,2.413,0.301,3.017,0.301c0.377,0,0.528,0.301,0.528,0.527c0,0.303-0.377,0.529-1.056,0.529
		c-3.695,0-7.994-0.227-8.371-0.227c-0.302,0-4.524,0.227-6.485,0.227c-0.754,0-1.056-0.152-1.056-0.529
		c0-0.227,0.151-0.527,0.528-0.527c0.604,0,1.357-0.15,1.961-0.301c1.357-0.303,1.81-1.51,1.96-3.395
		c0.151-2.639,0.151-5.354,0.151-6.41V41.627z"/>
</g>
</svg>
